<svg xmlns="http://www.w3.org/2000/svg" xmlns:xlink="http://www.w3.org/1999/xlink" width="1920" height="1080" viewBox="0 0 1920 1080">
  <defs>
    <style>
      .cls-1, .cls-16, .cls-17, .cls-18 {
        fill: none;
      }

      .cls-2 {
        clip-path: url(#clip-Main_Screen);
      }

      .cls-12, .cls-13, .cls-3 {
        fill: #707070;
      }

      .cls-4 {
        isolation: isolate;
        clip-path: url(#clip-path);
      }

      .cls-10, .cls-11, .cls-20, .cls-5 {
        fill: #fff;
      }

      .cls-6, .cls-9 {
        fill: #c5fab2;
      }

      .cls-15, .cls-7 {
        fill: #c1fffd;
      }

      .cls-10, .cls-12, .cls-14, .cls-7, .cls-8, .cls-9 {
        font-size: 60px;
      }

      .cls-10, .cls-12, .cls-13, .cls-20, .cls-7, .cls-8, .cls-9 {
        font-family: JetBrainsMono-Regular, JetBrains Mono;
      }

      .cls-8 {
        fill: #c4f9b1;
      }

      .cls-11, .cls-16 {
        stroke: #707070;
      }

      .cls-13, .cls-20 {
        font-size: 30px;
      }

      .cls-16 {
        stroke-width: 2px;
      }

      .cls-17 {
        stroke: #c1fffd;
        stroke-linecap: round;
      }

      .cls-17, .cls-18 {
        stroke-width: 10px;
      }

      .cls-18 {
        stroke: #c5fab2;
      }

      .cls-19 {
        fill: #70706f;
      }

      .cls-21 {
        stroke: none;
      }
    </style>
    <clipPath id="clip-path">
      <rect class="cls-1" width="400" height="980"/>
    </clipPath>
    <clipPath id="clip-Main_Screen">
      <rect width="1920" height="1080"/>
    </clipPath>
  </defs>
  <g id="Main_Screen" data-name="Main Screen" class="cls-2">
    <rect class="cls-3" width="1920" height="1080"/>
    <rect id="Rectangle_1" data-name="Rectangle 1" class="cls-3" width="1920" height="100"/>
    <g id="Scroll_Group_1" data-name="Scroll Group 1" class="cls-4" transform="translate(0 100)">
      <rect id="Rectangle_2" data-name="Rectangle 2" class="cls-5" width="400" height="980"/>
      <rect id="Rectangle_3" data-name="Rectangle 3" class="cls-3" width="400" height="980"/>
      <rect id="Rectangle_4" data-name="Rectangle 4" class="cls-3" width="400" height="100"/>
      <rect id="Rectangle_8" data-name="Rectangle 8" class="cls-3" width="400" height="100" transform="translate(0 100)"/>
      <circle id="Ellipse_2" data-name="Ellipse 2" class="cls-6" cx="40" cy="40" r="40" transform="translate(10 110)"/>
      <circle id="Ellipse_3" data-name="Ellipse 3" class="cls-6" cx="40" cy="40" r="40" transform="translate(10 10)"/>
      <circle id="Ellipse_5" data-name="Ellipse 5" class="cls-6" cx="50" cy="50" r="50" transform="translate(150 300)"/>
      <text id="_30" data-name="30" class="cls-7" transform="translate(150 113)"><tspan x="0" y="58">30</tspan></text>
      <text id="_25" data-name="25" class="cls-8" transform="translate(265 113)"><tspan x="0" y="58">25</tspan></text>
      <text id="_21" data-name="21" class="cls-7" transform="translate(150 13)"><tspan x="0" y="58">21</tspan></text>
      <text id="_25-2" data-name="25" class="cls-9" transform="translate(265 13)"><tspan x="0" y="58">25</tspan></text>
    </g>
    <rect id="Rectangle_5" data-name="Rectangle 5" class="cls-5" width="1520" height="980" transform="translate(400 100)"/>
    <rect id="Rectangle_6" data-name="Rectangle 6" class="cls-1" width="760" height="980" transform="translate(400 100)"/>
    <rect id="Rectangle_7" data-name="Rectangle 7" class="cls-1" width="760" height="980" transform="translate(1160 100)"/>
    <circle id="Ellipse_1" data-name="Ellipse 1" class="cls-6" cx="150" cy="150" r="150" transform="translate(1390 226)"/>
    <text id="Thyme" class="cls-10" transform="translate(20 71)"><tspan x="0" y="0">Thyme</tspan></text>
    <g id="Ellipse_4" data-name="Ellipse 4" class="cls-11" transform="translate(1827 10)">
      <circle class="cls-21" cx="40" cy="40" r="40"/>
      <circle class="cls-1" cx="40" cy="40" r="39.5"/>
    </g>
    <text id="Rosmarin" class="cls-12" transform="translate(1390 574)"><tspan x="-144" y="58">Rosmarin</tspan></text>
    <text id="Feuchtigkeit:_30_" data-name="Feuchtigkeit:  30%" class="cls-13" transform="translate(650 226)"><tspan x="0" y="58">Feuchtigkeit:</tspan><tspan class="cls-14" y="58" xml:space="preserve">  30%</tspan></text>
    <text id="Temperatur:_25_C" data-name="Temperatur:   25°C" class="cls-13" transform="translate(650 327)"><tspan x="0" y="58">Temperatur:</tspan><tspan class="cls-14" y="58" xml:space="preserve">   25°C</tspan></text>
    <text id="Laufzeit:_7M" data-name="Laufzeit:    7M" class="cls-13" transform="translate(650 428)"><tspan x="0" y="58">Laufzeit:</tspan><tspan class="cls-14" y="58" xml:space="preserve">    7M</tspan></text>
    <rect id="Rectangle_10" data-name="Rectangle 10" class="cls-15" width="50" height="566" transform="translate(500 414)"/>
    <g id="Rectangle_9" data-name="Rectangle 9" class="cls-16" transform="translate(500 200)">
      <rect class="cls-21" width="50" height="780"/>
      <rect class="cls-1" x="1" y="1" width="48" height="778"/>
    </g>
    <text id="Wasserverbrauch:_5L" data-name="Wasserverbrauch: 5L" class="cls-13" transform="translate(650 529)"><tspan x="0" y="58">Wasserverbrauch:</tspan><tspan class="cls-14" y="58" xml:space="preserve"> 5L</tspan></text>
    <rect id="Rectangle_11" data-name="Rectangle 11" class="cls-5" width="460" height="310" transform="translate(650 640)"/>
    <g id="Rectangle_12" data-name="Rectangle 12" class="cls-11" transform="translate(655 895)">
      <rect class="cls-21" width="50" height="50"/>
      <rect class="cls-1" x="0.5" y="0.5" width="49" height="49"/>
    </g>
    <g id="Rectangle_13" data-name="Rectangle 13" class="cls-11" transform="translate(705 895)">
      <rect class="cls-21" width="50" height="50"/>
      <rect class="cls-1" x="0.5" y="0.5" width="49" height="49"/>
    </g>
    <g id="Rectangle_14" data-name="Rectangle 14" class="cls-11" transform="translate(755 895)">
      <rect class="cls-21" width="50" height="50"/>
      <rect class="cls-1" x="0.5" y="0.5" width="49" height="49"/>
    </g>
    <g id="Rectangle_15" data-name="Rectangle 15" class="cls-11" transform="translate(805 895)">
      <rect class="cls-21" width="50" height="50"/>
      <rect class="cls-1" x="0.5" y="0.5" width="49" height="49"/>
    </g>
    <g id="Rectangle_16" data-name="Rectangle 16" class="cls-11" transform="translate(855 895)">
      <rect class="cls-21" width="50" height="50"/>
      <rect class="cls-1" x="0.5" y="0.5" width="49" height="49"/>
    </g>
    <g id="Rectangle_17" data-name="Rectangle 17" class="cls-11" transform="translate(655 845)">
      <rect class="cls-21" width="50" height="50"/>
      <rect class="cls-1" x="0.5" y="0.5" width="49" height="49"/>
    </g>
    <g id="Rectangle_18" data-name="Rectangle 18" class="cls-11" transform="translate(705 845)">
      <rect class="cls-21" width="50" height="50"/>
      <rect class="cls-1" x="0.5" y="0.5" width="49" height="49"/>
    </g>
    <g id="Rectangle_19" data-name="Rectangle 19" class="cls-11" transform="translate(755 845)">
      <rect class="cls-21" width="50" height="50"/>
      <rect class="cls-1" x="0.5" y="0.5" width="49" height="49"/>
    </g>
    <g id="Rectangle_20" data-name="Rectangle 20" class="cls-11" transform="translate(805 845)">
      <rect class="cls-21" width="50" height="50"/>
      <rect class="cls-1" x="0.5" y="0.5" width="49" height="49"/>
    </g>
    <g id="Rectangle_21" data-name="Rectangle 21" class="cls-11" transform="translate(855 845)">
      <rect class="cls-21" width="50" height="50"/>
      <rect class="cls-1" x="0.5" y="0.5" width="49" height="49"/>
    </g>
    <g id="Rectangle_22" data-name="Rectangle 22" class="cls-11" transform="translate(655 795)">
      <rect class="cls-21" width="50" height="50"/>
      <rect class="cls-1" x="0.5" y="0.5" width="49" height="49"/>
    </g>
    <g id="Rectangle_23" data-name="Rectangle 23" class="cls-11" transform="translate(705 795)">
      <rect class="cls-21" width="50" height="50"/>
      <rect class="cls-1" x="0.5" y="0.5" width="49" height="49"/>
    </g>
    <g id="Rectangle_24" data-name="Rectangle 24" class="cls-11" transform="translate(755 795)">
      <rect class="cls-21" width="50" height="50"/>
      <rect class="cls-1" x="0.5" y="0.5" width="49" height="49"/>
    </g>
    <g id="Rectangle_25" data-name="Rectangle 25" class="cls-11" transform="translate(805 795)">
      <rect class="cls-21" width="50" height="50"/>
      <rect class="cls-1" x="0.5" y="0.5" width="49" height="49"/>
    </g>
    <g id="Rectangle_26" data-name="Rectangle 26" class="cls-11" transform="translate(855 795)">
      <rect class="cls-21" width="50" height="50"/>
      <rect class="cls-1" x="0.5" y="0.5" width="49" height="49"/>
    </g>
    <g id="Rectangle_27" data-name="Rectangle 27" class="cls-11" transform="translate(655 745)">
      <rect class="cls-21" width="50" height="50"/>
      <rect class="cls-1" x="0.5" y="0.5" width="49" height="49"/>
    </g>
    <g id="Rectangle_28" data-name="Rectangle 28" class="cls-11" transform="translate(705 745)">
      <rect class="cls-21" width="50" height="50"/>
      <rect class="cls-1" x="0.5" y="0.5" width="49" height="49"/>
    </g>
    <g id="Rectangle_29" data-name="Rectangle 29" class="cls-11" transform="translate(755 745)">
      <rect class="cls-21" width="50" height="50"/>
      <rect class="cls-1" x="0.5" y="0.5" width="49" height="49"/>
    </g>
    <g id="Rectangle_30" data-name="Rectangle 30" class="cls-11" transform="translate(805 745)">
      <rect class="cls-21" width="50" height="50"/>
      <rect class="cls-1" x="0.5" y="0.5" width="49" height="49"/>
    </g>
    <g id="Rectangle_31" data-name="Rectangle 31" class="cls-11" transform="translate(855 745)">
      <rect class="cls-21" width="50" height="50"/>
      <rect class="cls-1" x="0.5" y="0.5" width="49" height="49"/>
    </g>
    <g id="Rectangle_32" data-name="Rectangle 32" class="cls-11" transform="translate(655 695)">
      <rect class="cls-21" width="50" height="50"/>
      <rect class="cls-1" x="0.5" y="0.5" width="49" height="49"/>
    </g>
    <g id="Rectangle_33" data-name="Rectangle 33" class="cls-11" transform="translate(705 695)">
      <rect class="cls-21" width="50" height="50"/>
      <rect class="cls-1" x="0.5" y="0.5" width="49" height="49"/>
    </g>
    <g id="Rectangle_34" data-name="Rectangle 34" class="cls-11" transform="translate(755 695)">
      <rect class="cls-21" width="50" height="50"/>
      <rect class="cls-1" x="0.5" y="0.5" width="49" height="49"/>
    </g>
    <g id="Rectangle_35" data-name="Rectangle 35" class="cls-11" transform="translate(805 695)">
      <rect class="cls-21" width="50" height="50"/>
      <rect class="cls-1" x="0.5" y="0.5" width="49" height="49"/>
    </g>
    <g id="Rectangle_36" data-name="Rectangle 36" class="cls-11" transform="translate(855 695)">
      <rect class="cls-21" width="50" height="50"/>
      <rect class="cls-1" x="0.5" y="0.5" width="49" height="49"/>
    </g>
    <g id="Rectangle_37" data-name="Rectangle 37" class="cls-11" transform="translate(655 645)">
      <rect class="cls-21" width="50" height="50"/>
      <rect class="cls-1" x="0.5" y="0.5" width="49" height="49"/>
    </g>
    <g id="Rectangle_38" data-name="Rectangle 38" class="cls-11" transform="translate(705 645)">
      <rect class="cls-21" width="50" height="50"/>
      <rect class="cls-1" x="0.5" y="0.5" width="49" height="49"/>
    </g>
    <g id="Rectangle_39" data-name="Rectangle 39" class="cls-11" transform="translate(755 645)">
      <rect class="cls-21" width="50" height="50"/>
      <rect class="cls-1" x="0.5" y="0.5" width="49" height="49"/>
    </g>
    <g id="Rectangle_40" data-name="Rectangle 40" class="cls-11" transform="translate(805 645)">
      <rect class="cls-21" width="50" height="50"/>
      <rect class="cls-1" x="0.5" y="0.5" width="49" height="49"/>
    </g>
    <g id="Rectangle_41" data-name="Rectangle 41" class="cls-11" transform="translate(855 645)">
      <rect class="cls-21" width="50" height="50"/>
      <rect class="cls-1" x="0.5" y="0.5" width="49" height="49"/>
    </g>
    <g id="Rectangle_42" data-name="Rectangle 42" class="cls-11" transform="translate(905 895)">
      <rect class="cls-21" width="50" height="50"/>
      <rect class="cls-1" x="0.5" y="0.5" width="49" height="49"/>
    </g>
    <g id="Rectangle_43" data-name="Rectangle 43" class="cls-11" transform="translate(955 895)">
      <rect class="cls-21" width="50" height="50"/>
      <rect class="cls-1" x="0.5" y="0.5" width="49" height="49"/>
    </g>
    <g id="Rectangle_44" data-name="Rectangle 44" class="cls-11" transform="translate(905 845)">
      <rect class="cls-21" width="50" height="50"/>
      <rect class="cls-1" x="0.5" y="0.5" width="49" height="49"/>
    </g>
    <g id="Rectangle_45" data-name="Rectangle 45" class="cls-11" transform="translate(955 845)">
      <rect class="cls-21" width="50" height="50"/>
      <rect class="cls-1" x="0.5" y="0.5" width="49" height="49"/>
    </g>
    <g id="Rectangle_46" data-name="Rectangle 46" class="cls-11" transform="translate(905 795)">
      <rect class="cls-21" width="50" height="50"/>
      <rect class="cls-1" x="0.5" y="0.5" width="49" height="49"/>
    </g>
    <g id="Rectangle_47" data-name="Rectangle 47" class="cls-11" transform="translate(955 795)">
      <rect class="cls-21" width="50" height="50"/>
      <rect class="cls-1" x="0.5" y="0.5" width="49" height="49"/>
    </g>
    <g id="Rectangle_48" data-name="Rectangle 48" class="cls-11" transform="translate(905 745)">
      <rect class="cls-21" width="50" height="50"/>
      <rect class="cls-1" x="0.5" y="0.5" width="49" height="49"/>
    </g>
    <g id="Rectangle_49" data-name="Rectangle 49" class="cls-11" transform="translate(955 745)">
      <rect class="cls-21" width="50" height="50"/>
      <rect class="cls-1" x="0.5" y="0.5" width="49" height="49"/>
    </g>
    <g id="Rectangle_50" data-name="Rectangle 50" class="cls-11" transform="translate(905 695)">
      <rect class="cls-21" width="50" height="50"/>
      <rect class="cls-1" x="0.5" y="0.5" width="49" height="49"/>
    </g>
    <g id="Rectangle_51" data-name="Rectangle 51" class="cls-11" transform="translate(955 695)">
      <rect class="cls-21" width="50" height="50"/>
      <rect class="cls-1" x="0.5" y="0.5" width="49" height="49"/>
    </g>
    <g id="Rectangle_52" data-name="Rectangle 52" class="cls-11" transform="translate(905 645)">
      <rect class="cls-21" width="50" height="50"/>
      <rect class="cls-1" x="0.5" y="0.5" width="49" height="49"/>
    </g>
    <g id="Rectangle_53" data-name="Rectangle 53" class="cls-11" transform="translate(955 645)">
      <rect class="cls-21" width="50" height="50"/>
      <rect class="cls-1" x="0.5" y="0.5" width="49" height="49"/>
    </g>
    <g id="Rectangle_54" data-name="Rectangle 54" class="cls-11" transform="translate(1005 895)">
      <rect class="cls-21" width="50" height="50"/>
      <rect class="cls-1" x="0.5" y="0.5" width="49" height="49"/>
    </g>
    <g id="Rectangle_55" data-name="Rectangle 55" class="cls-11" transform="translate(1055 895)">
      <rect class="cls-21" width="50" height="50"/>
      <rect class="cls-1" x="0.5" y="0.5" width="49" height="49"/>
    </g>
    <g id="Rectangle_56" data-name="Rectangle 56" class="cls-11" transform="translate(1005 845)">
      <rect class="cls-21" width="50" height="50"/>
      <rect class="cls-1" x="0.5" y="0.5" width="49" height="49"/>
    </g>
    <g id="Rectangle_57" data-name="Rectangle 57" class="cls-11" transform="translate(1055 845)">
      <rect class="cls-21" width="50" height="50"/>
      <rect class="cls-1" x="0.5" y="0.5" width="49" height="49"/>
    </g>
    <g id="Rectangle_58" data-name="Rectangle 58" class="cls-11" transform="translate(1005 795)">
      <rect class="cls-21" width="50" height="50"/>
      <rect class="cls-1" x="0.5" y="0.5" width="49" height="49"/>
    </g>
    <g id="Rectangle_59" data-name="Rectangle 59" class="cls-11" transform="translate(1055 795)">
      <rect class="cls-21" width="50" height="50"/>
      <rect class="cls-1" x="0.5" y="0.5" width="49" height="49"/>
    </g>
    <g id="Rectangle_60" data-name="Rectangle 60" class="cls-11" transform="translate(1005 745)">
      <rect class="cls-21" width="50" height="50"/>
      <rect class="cls-1" x="0.5" y="0.5" width="49" height="49"/>
    </g>
    <g id="Rectangle_61" data-name="Rectangle 61" class="cls-11" transform="translate(1055 745)">
      <rect class="cls-21" width="50" height="50"/>
      <rect class="cls-1" x="0.5" y="0.5" width="49" height="49"/>
    </g>
    <g id="Rectangle_62" data-name="Rectangle 62" class="cls-11" transform="translate(1005 695)">
      <rect class="cls-21" width="50" height="50"/>
      <rect class="cls-1" x="0.5" y="0.5" width="49" height="49"/>
    </g>
    <g id="Rectangle_63" data-name="Rectangle 63" class="cls-11" transform="translate(1055 695)">
      <rect class="cls-21" width="50" height="50"/>
      <rect class="cls-1" x="0.5" y="0.5" width="49" height="49"/>
    </g>
    <g id="Rectangle_64" data-name="Rectangle 64" class="cls-11" transform="translate(1005 645)">
      <rect class="cls-21" width="50" height="50"/>
      <rect class="cls-1" x="0.5" y="0.5" width="49" height="49"/>
    </g>
    <g id="Rectangle_65" data-name="Rectangle 65" class="cls-11" transform="translate(1055 645)">
      <rect class="cls-21" width="50" height="50"/>
      <rect class="cls-1" x="0.5" y="0.5" width="49" height="49"/>
    </g>
    <line id="Line_1" data-name="Line 1" class="cls-17" y1="100" x2="250" transform="translate(655.5 745.5)"/>
    <line id="Line_2" data-name="Line 2" class="cls-17" x2="200" y2="50" transform="translate(905 745)"/>
    <line id="Line_3" data-name="Line 3" class="cls-18" x2="150" y2="25" transform="translate(655.5 695.5)"/>
    <line id="Line_4" data-name="Line 4" class="cls-18" x1="100" y2="17" transform="translate(805.5 703.5)"/>
    <line id="Line_5" data-name="Line 5" class="cls-18" x1="200" transform="translate(905.5 703.5)"/>
    <rect id="Rectangle_66" data-name="Rectangle 66" class="cls-19" width="300" height="50" transform="translate(1390 900)"/>
    <text id="Einstellungen" class="cls-20" transform="translate(1390 907)"><tspan x="-117" y="29">Einstellungen</tspan></text>
  </g>
</svg>