<?xml version="1.0" encoding="UTF-8" standalone="no"?>
<!DOCTYPE svg PUBLIC "-//W3C//DTD SVG 1.1//EN" "http://www.w3.org/Graphics/SVG/1.1/DTD/svg11.dtd">
<svg xmlns="http://www.w3.org/2000/svg" xmlns:xlink="http://www.w3.org/1999/xlink" version="1.1" width="1080" height="1080" viewBox="0 0 1080 1080" xml:space="preserve">
<desc>Created with Fabric.js 4.2.0</desc>
<defs>
</defs>
<rect x="0" y="0" width="100%" height="100%" fill="transparent"/>
<g transform="matrix(1 0 0 1 540 540)" id="677ae7e9-c683-429a-99fe-48dc605996d1">
<rect style="stroke: none; stroke-width: 1; stroke-dasharray: none; stroke-linecap: butt; stroke-dashoffset: 0; stroke-linejoin: miter; stroke-miterlimit: 4; fill: rgb(255,255,255); fill-rule: nonzero; opacity: 0;" vector-effect="non-scaling-stroke" x="-540" y="-540" rx="0" ry="0" width="1080" height="1080"/>
</g>
<g transform="matrix(Infinity NaN NaN Infinity 0 0)" id="e0902740-65d8-414f-93c4-a7f9a2325fef">
</g>
<g transform="matrix(0.58 0 0 5.51 540 468.08)" id="49c6e285-ff58-4006-874e-a840d5175025">
<rect style="stroke: rgb(0,0,0); stroke-width: 0; stroke-dasharray: none; stroke-linecap: butt; stroke-dashoffset: 0; stroke-linejoin: miter; stroke-miterlimit: 4; fill: #C5FAB2; fill-rule: nonzero; opacity: 1;" vector-effect="non-scaling-stroke" x="-33.0835" y="-33.0835" rx="0" ry="0" width="66.167" height="66.167"/>
</g>
<g transform="matrix(6.53 0 0 1.11 540 684.67)" id="e2adc0a8-21ab-4fe6-86e3-1c00e05579bf">
<rect style="stroke: rgb(0,0,0); stroke-width: 0; stroke-dasharray: none; stroke-linecap: butt; stroke-dashoffset: 0; stroke-linejoin: miter; stroke-miterlimit: 4; fill: #E0E0E0; fill-rule: nonzero; opacity: 1;" vector-effect="non-scaling-stroke" x="-33.0835" y="-33.0835" rx="0" ry="0" width="66.167" height="66.167"/>
</g>
<g transform="matrix(0.57 -0.93 2.62 1.6 468.06 247.28)" id="1ee9686e-1ec7-4799-b30c-801fe8a7e336">
<circle style="stroke: rgb(0,0,0); stroke-width: 0; stroke-dasharray: none; stroke-linecap: butt; stroke-dashoffset: 0; stroke-linejoin: miter; stroke-miterlimit: 4; fill: #C5FAB2; fill-rule: nonzero; opacity: 1;" vector-effect="non-scaling-stroke" cx="0" cy="0" r="35"/>
</g>
<g transform="matrix(0.57 -0.93 2.62 1.6 452.76 520.46)" id="1ee9686e-1ec7-4799-b30c-801fe8a7e336">
<circle style="stroke: rgb(0,0,0); stroke-width: 0; stroke-dasharray: none; stroke-linecap: butt; stroke-dashoffset: 0; stroke-linejoin: miter; stroke-miterlimit: 4; fill: #C5FAB2; fill-rule: nonzero; opacity: 1;" vector-effect="non-scaling-stroke" cx="0" cy="0" r="35"/>
</g>
<g transform="matrix(0.68 0.85 -2.4 1.92 633.2 371.84)" id="1ee9686e-1ec7-4799-b30c-801fe8a7e336">
<circle style="stroke: rgb(0,0,0); stroke-width: 0; stroke-dasharray: none; stroke-linecap: butt; stroke-dashoffset: 0; stroke-linejoin: miter; stroke-miterlimit: 4; fill: #C5FAB2; fill-rule: nonzero; opacity: 1;" vector-effect="non-scaling-stroke" cx="0" cy="0" r="35"/>
</g>
<g transform="matrix(3.72 0 0 3.95 540 844.85)" id="a939596d-93c8-4f7d-b010-4b6f37fe75b1">
<rect style="stroke: rgb(0,0,0); stroke-width: 0; stroke-dasharray: none; stroke-linecap: butt; stroke-dashoffset: 0; stroke-linejoin: miter; stroke-miterlimit: 4; fill: #E0E0E0; fill-rule: nonzero; opacity: 1;" vector-effect="non-scaling-stroke" x="-33.0835" y="-33.0835" rx="0" ry="0" width="66.167" height="66.167"/>
</g>
<g transform="matrix(1.1 -0.3 1.02 3.83 417.91 837.53)" id="0947253f-de64-46f1-8bac-1b392811f9f1">
<rect style="stroke: rgb(0,0,0); stroke-width: 0; stroke-dasharray: none; stroke-linecap: butt; stroke-dashoffset: 0; stroke-linejoin: miter; stroke-miterlimit: 4; fill: #E0E0E0; fill-rule: nonzero; opacity: 1;" vector-effect="non-scaling-stroke" x="-33.0835" y="-33.0835" rx="0" ry="0" width="66.167" height="66.167"/>
</g>
<g transform="matrix(1.1 0.31 -1.08 3.81 662.44 835.7)" id="0947253f-de64-46f1-8bac-1b392811f9f1">
<rect style="stroke: rgb(0,0,0); stroke-width: 0; stroke-dasharray: none; stroke-linecap: butt; stroke-dashoffset: 0; stroke-linejoin: miter; stroke-miterlimit: 4; fill: #E0E0E0; fill-rule: nonzero; opacity: 1;" vector-effect="non-scaling-stroke" x="-33.085" y="-33.085" rx="0" ry="0" width="66.17" height="66.17"/>
</g>
</svg>
