<?xml version="1.0" encoding="UTF-8" standalone="no"?>
<!DOCTYPE svg PUBLIC "-//W3C//DTD SVG 1.1//EN" "http://www.w3.org/Graphics/SVG/1.1/DTD/svg11.dtd">
<svg xmlns="http://www.w3.org/2000/svg" xmlns:xlink="http://www.w3.org/1999/xlink" version="1.1" width="1080" height="200" viewBox="0 0 1080 200" xml:space="preserve">
<desc>Created with Fabric.js 4.2.0</desc>
<defs>
</defs>
<g transform="matrix(1 0 0 1 540 100)" id="e6bb038e-c424-4996-a960-abd9969a80ae">
<rect style="stroke: none; stroke-width: 1; stroke-dasharray: none; stroke-linecap: butt; stroke-dashoffset: 0; stroke-linejoin: miter; stroke-miterlimit: 4; fill: transparent; fill-rule: nonzero; opacity: 1;" vector-effect="non-scaling-stroke" x="-540" y="-100" rx="0" ry="0" width="1080" height="200"/>
</g>
<g transform="matrix(0 0 0 0 0 0)" id="45f26a52-1eb8-4f0a-9c77-1dbdebb19f09">
</g>
<g transform="matrix(1 0 0 1.07 440.33 72.74)" id="2dc29178-3779-4ace-9d5f-12f9accddab1">
<polygon style="stroke: rgb(0,0,0); stroke-width: 0; stroke-dasharray: none; stroke-linecap: butt; stroke-dashoffset: 0; stroke-linejoin: miter; stroke-miterlimit: 4; fill: #8cc0ff; fill-rule: nonzero; opacity: 1;" vector-effect="non-scaling-stroke" points="-37.43,32.41 0,-32.41 37.43,32.41 "/>
</g>
<g transform="matrix(1.15 0 0 1.15 440.13 121.69)" id="6182df49-4f4c-426b-9253-a51322d18b8e">
<circle style="stroke: rgb(0,0,0); stroke-width: 0; stroke-dasharray: none; stroke-linecap: butt; stroke-dashoffset: 0; stroke-linejoin: miter; stroke-miterlimit: 4; fill: #8cc0ff; fill-rule: nonzero; opacity: 1;" vector-effect="non-scaling-stroke" cx="0" cy="0" r="35"/>
</g>
<g transform="matrix(1 0 0 1.07 103.37 72.74)">
<polygon style="stroke: rgb(0,0,0); stroke-width: 0; stroke-dasharray: none; stroke-linecap: butt; stroke-dashoffset: 0; stroke-linejoin: miter; stroke-miterlimit: 4; fill: #8cc0ff; fill-rule: nonzero; opacity: 1;" vector-effect="non-scaling-stroke" points="-37.43,32.41 0,-32.41 37.43,32.41 "/>
</g>
<g transform="matrix(1.15 0 0 1.15 103.18 121.69)" id="6182df49-4f4c-426b-9253-a51322d18b8e">
<circle style="stroke: rgb(0,0,0); stroke-width: 0; stroke-dasharray: none; stroke-linecap: butt; stroke-dashoffset: 0; stroke-linejoin: miter; stroke-miterlimit: 4; fill: #8cc0ff; fill-rule: nonzero; opacity: 1;" vector-effect="non-scaling-stroke" cx="0" cy="0" r="35"/>
</g>
<g transform="matrix(1 0 0 1.07 754.32 72.74)">
<polygon style="stroke: rgb(0,0,0); stroke-width: 0; stroke-dasharray: none; stroke-linecap: butt; stroke-dashoffset: 0; stroke-linejoin: miter; stroke-miterlimit: 4; fill: #8cc0ff; fill-rule: nonzero; opacity: 1;" vector-effect="non-scaling-stroke" points="-37.43,32.41 0,-32.41 37.43,32.41 "/>
</g>
<g transform="matrix(1.15 0 0 1.15 754.13 121.69)" id="6182df49-4f4c-426b-9253-a51322d18b8e">
<circle style="stroke: rgb(0,0,0); stroke-width: 0; stroke-dasharray: none; stroke-linecap: butt; stroke-dashoffset: 0; stroke-linejoin: miter; stroke-miterlimit: 4; fill: #8cc0ff; fill-rule: nonzero; opacity: 1;" vector-effect="non-scaling-stroke" cx="0" cy="0" r="35"/>
</g>
</svg>